<?xml version="1.0" encoding="UTF-8" standalone="no"?>
<svg xmlns="http://www.w3.org/2000/svg" width="800" height="400" viewBox="0 0 800 400">
  <!-- Background -->
  <rect width="100%" height="100%" fill="#0D0E12"/>
  
  <!-- Stars -->
  <g fill="#A48BE9" fill-opacity="0.3">
    <circle cx="150" cy="50" r="1"/>
    <circle cx="250" cy="80" r="1"/>
    <circle cx="450" cy="30" r="1"/>
    <circle cx="650" cy="70" r="1"/>
    <circle cx="350" cy="40" r="1"/>
    <circle cx="550" cy="60" r="1"/>
    <circle cx="200" cy="90" r="1"/>
  </g>
  
  <!-- Moon -->
  <path d="M620 60a40 40 0 1 1 40 40 32 32 0 0 0 0-64" fill="#A48BE9" opacity="0.2"/>

  <!-- Thought bubble -->
  <ellipse cx="400" cy="160" rx="80" ry="40" fill="#1E2028"/>
  
  <!-- Question mark -->
  <circle cx="400" cy="160" r="25" fill="#A48BE9" opacity="0.8"/>
  <text x="400" y="170" font-family="Arial" font-size="30" fill="#0D0E12" text-anchor="middle" font-weight="bold">?</text>
  
  <!-- Timeline dots -->
  <g transform="translate(350,270)">
    <line x1="0" y1="0" x2="100" y2="0" stroke="#3B3E4D" stroke-width="2"/>
    <circle cx="0" cy="0" r="3" fill="#A48BE9"/>
    <circle cx="50" cy="0" r="3" fill="#A48BE9"/>
    <circle cx="100" cy="0" r="3" fill="#A48BE9"/>
  </g>
</svg>
